<?xml version="1.0" encoding="utf-8"?>
<!-- Generator: Adobe Illustrator 25.0.1, SVG Export Plug-In . SVG Version: 6.00 Build 0)  -->
<svg version="1.1" id="Layer_1" xmlns="http://www.w3.org/2000/svg" xmlns:xlink="http://www.w3.org/1999/xlink" x="0px" y="0px"
	 viewBox="0 0 375 812" style="enable-background:new 0 0 375 812;" xml:space="preserve">
<path d="M319.2-0.5H55.8C25-0.5,0,24.5,0,55.3v700.3c0,30.8,25,55.9,55.8,55.9h263.4c30.8,0,55.8-25,55.8-55.9V55.3
	C375,24.5,350-0.5,319.2-0.5z M356.5,755.6c0,20.6-16.7,37.4-37.3,37.4H55.8c-20.6,0-37.3-16.7-37.3-37.4V55.3
	C18.5,34.7,35.2,18,55.8,18h263.3c20.6,0,37.3,16.7,37.3,37.4v700.2H356.5z"/>
</svg>
