<svg xmlns="http://www.w3.org/2000/svg" viewBox="0 0 71.34 67.9"><path d="M35.75.13l.66,2.4-1.82,7.84v4.68l2.48,15.42,4.64-4.42,6.62-4.55L51,18.08l6-3.54,6-4,5.3-2.91,2-.38,1.16.12-.83,2.79L68.36,12,62.73,15.3l-3.48,3.29L55.12,21.5l-.5,1.39L44.19,31l-4.3,3.67-2,2,.5,4.55V46l.83,5.31,3.14,10,.5,2.91-3.15,1.39-5.13-1.39-3-.38L33.1,61.2V57.91l-.66-7.2-1-6.07-.66-1L28.63,45l-1.49,2.65-3.47,1.65-1.16,1.51v.38l-4,2.66-2.82,4.3L13.9,60.06l-2.15,1.39.17.89-2,2.28-.66,2.15L6.62,67.9l-3.81-1L0,62.85l4.63-3.92,4.14-4.3,4.47-4.05,2.48-1.9L18.54,47l1.32-2.91L22.18,42l5.3-3.29,2-1.89.83-2.53L29,30.09V25.54L27.64,15.05V9.86L27.14,7,25.82,2.78,27.14,1l3.31-1,3.81.76Z" fill="#f22e38"/></svg>