<svg xmlns="http://www.w3.org/2000/svg" viewBox="0 0 624.79 28.61"><path d="M566.31,0h16.43l14.45,1.41,11.17,2.48,9.2,3.88,7.23,5-9.2,11-13.14-1.06L590,19.78H503.9l-22.34-2.12-19.7,1.06L448.72,17l-14.46.7L415.87,17l-18.4,1.76H295l-16.42-1.06L239.8,19.78l-22.34-1.06L188.55,21.9,164.9,19.78,149.79,21.9H122.86l-9.86.71L97.89,24.73,69,26.14H43.36L25,28.61,12.48,26.14l-9.85-5.3L0,14.48,7.23,8.13l11.17.7L25,12H51.9l27.59,1.06L105.12,12l37.44-3.18,27.6,1.06h23.65l24.31-2.12H322.58L348.2,8.83h72.92l22.34-2.12,48,2.47h58.47l7.88-4.24Z" fill="#f22e38"/></svg>