<svg xmlns="http://www.w3.org/2000/svg" viewBox="0 0 456.31 941.17"><path d="M58.94,0H397.36a4.8,4.8,0,0,0,1.31.71c35.58,6.12,58.11,36.58,57.63,70.61-.71,50-.19,100-.19,149.94q0,325.44.11,650.9c0,36.61-30.23,69-68.22,69q-160.06,0-320.13-.07c-17.48,0-33.22-6-46-18C6.52,908.66,0,890.53,0,869.51Q.17,559.78.07,250q0-90.17,0-180.33c0-26.91,11.65-47.51,34.85-60.9C42.2,4.59,50.9,2.86,58.94,0ZM340.22,22.14a7.46,7.46,0,0,0-.4,1.8c1,15.79-10.72,28.67-29.88,28.47-55-.59-110.09-.2-165.14-.21-16.53,0-26.41-9.4-26.93-25.83-.11-3.44-1.22-4.8-4.75-4.76-17.56.2-35.12,0-52.67.39-16.39.38-27.56,9.38-35.55,23-4.72,8-5.12,16.93-5.12,25.94q0,400.68,0,801.37c0,3,.24,6.07.27,9.11.21,19.21,20.79,40.91,43.33,40.88q164.64-.16,329.26,0c9.87,0,18.48-3.45,26.07-9.47,12.78-10.13,18-23.37,18-39.77q-.31-322.93-.17-645.86,0-79.28.05-158.55c0-8.52-.71-16.83-5.42-24.31-8.17-13-19-21.93-35-22.3-17.38-.4-34.77-.27-52.16-.33A28,28,0,0,0,340.22,22.14Z"/></svg>