<svg xmlns="http://www.w3.org/2000/svg" width="82.458" height="86.294" viewBox="0 0 82.458 86.294">
  <g id="Group_31" data-name="Group 31" transform="translate(365.24 -176.534) rotate(66)">
    <path id="Path_19" data-name="Path 19" d="M101.757,394.9a1.437,1.437,0,0,1,.99.642,6.337,6.337,0,0,1-.083,1.142,4.246,4.246,0,0,1-.495,1.855,7.4,7.4,0,0,1-1.979,2.283,29.847,29.847,0,0,0-3.051,2,4.3,4.3,0,0,1-2.062.856,1.484,1.484,0,0,0-1.237.428c-.056.1-.193.143-.412.143a2.206,2.206,0,0,1-1.485-.571,10.6,10.6,0,0,1-.907-.714l-.99-.856a1.933,1.933,0,0,1-.66-.856,31.914,31.914,0,0,1-2.144-3.71l-.742-1.57a25.549,25.549,0,0,0-1.4,4.423,17.237,17.237,0,0,1-.99,3,5.623,5.623,0,0,1-.536,1q-.371.572-.619,1a9.806,9.806,0,0,0-1.113.5,1.133,1.133,0,0,1-1.278-.071c-.165-.093-.33-.189-.495-.285s-.33-.19-.5-.286q-.825-1.141-.99-1.427a13.571,13.571,0,0,1-.99-1.712,14.4,14.4,0,0,1-1.567-4L75.2,395.26l-1.154-5.993v-.143q-.167-1-.33-1.926t-.33-1.783a.73.73,0,0,0-.33.5,2.04,2.04,0,0,1-.165.5.567.567,0,0,0-.083.286c0,.1-.028.143-.082.143a3.661,3.661,0,0,0-.536,1,3.692,3.692,0,0,1-.536,1,3.284,3.284,0,0,0-.66,1.427q-.495,1-1.32,3c-.165.478-.412,1.142-.742,2a19.515,19.515,0,0,0-.742,2.283,7.289,7.289,0,0,1-.825,2.283,4.173,4.173,0,0,0-.247.714L65.471,407.1q-.414,1.284-.825,3.139a1.987,1.987,0,0,1-.33.856,32.984,32.984,0,0,1-1.4,3.425q-.578,1.283-1.237.713l-.907-.285a1,1,0,0,1-.371-.214,2.233,2.233,0,0,1-.495-.5,1.455,1.455,0,0,1-.206-.856,1.227,1.227,0,0,0-.371.428,2.657,2.657,0,0,0,.124.856,5.2,5.2,0,0,1-1.072-2c-.111-.571-.247-.9-.412-1a2.614,2.614,0,0,1-.412-1.142q-.331-1.712-.412-2.568v-.143a7.96,7.96,0,0,1-.412-2.711q0-.856.165-2.568v-.856a6.263,6.263,0,0,1-.082-1.142q0-.857.165-2.569.081-1.568.371-3.638t.454-3.353q0-.283.083-1.213a9.326,9.326,0,0,1,.33-1.784v-.713a20.405,20.405,0,0,1,.247-3.424,7.454,7.454,0,0,0,.083-1.285l.082-.57.165-.571a2.659,2.659,0,0,0,.082-.713,2.587,2.587,0,0,1,.083-.714,2.354,2.354,0,0,0,.164-.642,5.2,5.2,0,0,0,.083-.785l.577-4.138q.081-.712.247-1.64a9.012,9.012,0,0,0,.165-1.5,5.281,5.281,0,0,1,.247-1.142q.412-1.712.412-1.855a1.363,1.363,0,0,0,.041-.571,3.841,3.841,0,0,1-.041-.57H60.77a8,8,0,0,0-1.237,2q-.825,1.428-2.309,4.566L55.9,376.14l-1.4,3-1.732,3.71-.165.142q-.166.428-1.237,3.14-.414.856-1.072,2.568-.578,1.284-1.567,3.853c-.22.571-.441,1.191-.66,1.855s-.441,1.284-.66,1.855a26.294,26.294,0,0,0-1.484,4.423l-.247.571a3.3,3.3,0,0,0-.412,1,12.282,12.282,0,0,1-.577,2.141q-.414,1.143-.577,1.712a10.442,10.442,0,0,0-.577,2.283,9.745,9.745,0,0,1-.289,1.07,9.269,9.269,0,0,0-.289,1.07l-.083.285a3.344,3.344,0,0,1-1.814,2.569l-.412.428a2.441,2.441,0,0,1-.825,1,.737.737,0,0,1-.495.143h-.742a1.01,1.01,0,0,1-.907-.714l-.165-.143q-.661,0-1.113-.857c-.3-.571-.509-.95-.619-1.142a3.84,3.84,0,0,1-.371-.856q-.124-.428-.289-.856a1.145,1.145,0,0,1,.083-1,3.292,3.292,0,0,0,.66-2.283.436.436,0,0,1,.041-.214l.124-.214.742,1.285a4,4,0,0,0,.907-1.427q.411-1.284,1.4-3.853l1.237-3.425,1.32-3.282.412-1.284q.247-.713.495-1.5t.66-1.784l.412-1.427.577-1.141a39.542,39.542,0,0,1,1.9-4.851l1.072-2.426,1.4-3.139,1.155-2.283q.412-.857,1.031-2a25.342,25.342,0,0,0,1.2-2.569q-.166.428,2.557-5.279.164-.285.412-.642c.165-.236.33-.5.495-.785l.247-.143a4.765,4.765,0,0,1,.66-1.783q.495-.782.66-1.07l2.391-3.852c.165-.285.275-.428.33-.428a4.376,4.376,0,0,0,.907-.928,6.654,6.654,0,0,1,.825-.927q.989-.713,1.649-.285a4.7,4.7,0,0,0,1.856,1,7.043,7.043,0,0,0,1.278.285c.11,0,.233.1.371.286a2.378,2.378,0,0,0,.371.428,1.508,1.508,0,0,1,.33.714,3.961,3.961,0,0,1,.082.571,5.792,5.792,0,0,0,.33,2.283.688.688,0,0,1,.041.428,3.186,3.186,0,0,0-.041.428,2.815,2.815,0,0,0-.33,1.427q0,.144-.247,1.855a8.377,8.377,0,0,1-.165,1.57c-.111.571-.193,1.048-.247,1.427l-.33,1.427q-.248,1-.825,4.423-.083.428-.412,1.926a18.5,18.5,0,0,0-.412,2.925,9.976,9.976,0,0,1-.247,1.5q-.166.642-.247,1.07v.714q-.33,2.428-.412,3.282l-.165.714a19.293,19.293,0,0,1-.33,2.853,5.112,5.112,0,0,0-.247,1.284c-.056.571-.111,1.049-.165,1.427s-.124.906-.206,1.57a7.312,7.312,0,0,0-.041,1.712.879.879,0,0,1-.082.428.875.875,0,0,0-.083.429c.054,0,.137-.094.247-.285l1.4-3.567,1.32-3.282.742-2a44.381,44.381,0,0,1,2.722-5.85q.412-.713,2.722-4,.823-1.141,1.567-.428a1.269,1.269,0,0,0,1.072.428,3.482,3.482,0,0,1,2.144,1.57,6.068,6.068,0,0,0,1.072.714,8.281,8.281,0,0,0,.165,1.57,10.77,10.77,0,0,1,.33,2.283,17.836,17.836,0,0,0,.247,2.283q.165,1.428.66,4.28a4.12,4.12,0,0,1,.165,1.142,12.959,12.959,0,0,0,.33,2.783q.329,1.5.412,1.926l.248.714a9.222,9.222,0,0,0,.907-2.14l1.4-3.71q.99-2.14.907-2a4.063,4.063,0,0,1,1.237-1.284q.329-.284.577,0a4.932,4.932,0,0,0,1.732.713,2.64,2.64,0,0,1,1.32.856,7.038,7.038,0,0,0,.99,1c.054,0,.136.1.247.286a11.3,11.3,0,0,1,.907,3.139,12.644,12.644,0,0,0,1.4,4.424q.5.856.99.713a4.182,4.182,0,0,0,1.237-.285,27.507,27.507,0,0,1,2.722-1.427l1.979-1a2.88,2.88,0,0,1,1.072-.285,4.244,4.244,0,0,1,1.237-.285A7.906,7.906,0,0,1,101.757,394.9ZM47.9,383.7l-.165.571A.6.6,0,0,0,47.9,383.7Zm.33-.428c0-.093-.028-.142-.083-.142l-.082.286Zm2.639-5.707.082-.286-.165.143C50.791,377.52,50.818,377.567,50.873,377.567Zm.577-1.142a.882.882,0,0,0,.082-.429l-.33.571c-.22,0-.276.192-.165.571l.165-.571A.268.268,0,0,0,51.451,376.426Zm3.67-6.778a11.686,11.686,0,0,0,.371-1.784c-.165.1-.247.192-.247.285A26.565,26.565,0,0,0,53.925,371a12.121,12.121,0,0,1-1.155,1.855l-.165.286-.165,1,.495-.571.742-1.284c.054-.189.151-.5.289-.927a1.186,1.186,0,0,1,.536-.785A1.72,1.72,0,0,0,55.121,369.648Zm1.361-3.782-.165.571-.495.714v.285l.495-.285v-.714C56.481,366.437,56.535,366.248,56.481,365.866Zm1.237-1.855-.33.143a.9.9,0,0,1-.207.642,2.023,2.023,0,0,0-.289.357l-.165.713a3.913,3.913,0,0,1,.907-.856A5.276,5.276,0,0,1,57.719,364.012Zm.783-1a1.152,1.152,0,0,0,.289-.856c-.221,0-.358.167-.412.5a1.127,1.127,0,0,1-.247.642C58.185,363.3,58.309,363.2,58.5,363.013Zm.618,38.669h-.082v.143h.082Zm.99-41.238v-.571l-.247.571a.975.975,0,0,0-.412.857q.412,0,.412-.857Zm-.5,35.1a.545.545,0,0,0-.124.5c.027.239.041.405.041.5A.762.762,0,0,0,59.615,395.546Zm.33-1.855h-.082l-.083.285c.054,0,.083.049.083.143Zm.577-34.1-.165.142.165.143Zm5.36,32.675-.082.143c.054,0,.082.049.082.143Zm2.969-7.276-.165.285h.082Zm2.557-4.424c0-.093-.029-.143-.082-.143v.143Z" transform="translate(0)" fill="#f22e38"/>
  </g>
</svg>
